<svg id="arrow-left" viewBox="0 0 50 26" fill="none" xmlns="http://www.w3.org/2000/svg">
	<style>path {transition: 0.3s}</style>
<path d="M4.29289 12.2929C3.90237 12.6834 3.90237 13.3166 4.29289 13.7071L10.6569 20.0711C11.0474 20.4616 11.6805 20.4616 12.0711 20.0711C12.4616 19.6805 12.4616 19.0474 12.0711 18.6569L6.41421 13L12.0711 7.34315C12.4616 6.95262 12.4616 6.31946 12.0711 5.92893C11.6805 5.53841 11.0474 5.53841 10.6569 5.92893L4.29289 12.2929ZM45 14C45.5523 14 46 13.5523 46 13C46 12.4477 45.5523 12 45 12V14ZM5 14H45V12H5V14Z" fill="var(--icon-color, #D7BF7F)"/>
</svg>
