<svg id="icon-youtube" viewBox="0 0 30 24" fill="none" xmlns="http://www.w3.org/2000/svg">
	<style>path {transition: 0.3s}</style>
<path d="M19.8804 11.0918L13.4518 6.72819C13.2904 6.61855 13.1028 6.55559 12.909 6.54603C12.7152 6.53647 12.5225 6.58067 12.3514 6.67391C12.1804 6.76715 12.0374 6.90593 11.9378 7.07544C11.8381 7.24494 11.7856 7.43882 11.7857 7.63637V16.3636C11.7856 16.5612 11.8381 16.7551 11.9378 16.9246C12.0374 17.0941 12.1804 17.2329 12.3514 17.3261C12.5225 17.4193 12.7152 17.4635 12.909 17.454C13.1028 17.4444 13.2904 17.3815 13.4518 17.2718L19.8804 12.9082C20.0273 12.8086 20.1478 12.6736 20.2312 12.5151C20.3146 12.3567 20.3582 12.1797 20.3582 12C20.3582 11.8203 20.3146 11.6433 20.2312 11.4849C20.1478 11.3264 20.0273 11.1914 19.8804 11.0918ZM13.9286 14.325V9.68182L17.3545 12L13.9286 14.325ZM29.2406 4.02546C29.1144 3.52275 28.8726 3.0578 28.5352 2.66896C28.1978 2.28012 27.7744 1.97854 27.3 1.7891C22.7089 -0.0163585 15.4018 5.18717e-06 15 5.18717e-06C14.5982 5.18717e-06 7.29107 -0.0163585 2.7 1.7891C2.22558 1.97854 1.80219 2.28012 1.46477 2.66896C1.12735 3.0578 0.88557 3.52275 0.759375 4.02546C0.4125 5.38637 0 7.87364 0 12C0 16.1264 0.4125 18.6136 0.759375 19.9745C0.885381 20.4775 1.12708 20.9427 1.46451 21.3318C1.80194 21.7209 2.22542 22.0227 2.7 22.2123C7.09821 23.94 13.9821 24 14.9116 24H15.0884C16.0179 24 22.9058 23.94 27.3 22.2123C27.7746 22.0227 28.1981 21.7209 28.5355 21.3318C28.8729 20.9427 29.1146 20.4775 29.2406 19.9745C29.5875 18.6109 30 16.1264 30 12C30 7.87364 29.5875 5.38637 29.2406 4.02546ZM27.1661 19.4345C27.1253 19.6019 27.0461 19.7569 26.935 19.8871C26.824 20.0172 26.6842 20.1187 26.5272 20.1832C22.2884 21.8495 15.079 21.8195 15.0094 21.8195H15C14.9277 21.8195 7.72366 21.8468 3.48214 20.1832C3.32514 20.1187 3.18539 20.0172 3.07434 19.8871C2.9633 19.7569 2.88412 19.6019 2.8433 19.4345C2.51786 18.1895 2.14286 15.8959 2.14286 12C2.14286 8.10409 2.51786 5.81046 2.83393 4.57228C2.87399 4.40398 2.95282 4.24781 3.06391 4.11668C3.17499 3.98555 3.31514 3.88323 3.47277 3.81819C7.56027 2.21046 14.4094 2.18182 14.9705 2.18182H15.0067C15.079 2.18182 22.2897 2.15728 26.5246 3.81819C26.6816 3.8827 26.8213 3.98419 26.9324 4.11432C27.0434 4.24445 27.1226 4.39952 27.1634 4.56682C27.4821 5.81046 27.8571 8.10409 27.8571 12C27.8571 15.8959 27.4821 18.1895 27.1661 19.4277V19.4345Z" fill="var(--icon-color, #D7BF7F)"/>
</svg>
