<svg width="550" height="396" viewBox="0 0 550 396" fill="none" xmlns="http://www.w3.org/2000/svg">
<path opacity="0.07" fill-rule="evenodd" clip-rule="evenodd" d="M213.357 70.9314C235.5 57.796 255.203 47.4753 272.467 39.9693L256.704 0C185.022 28.5227 124.224 69.8055 74.3091 123.849C24.7697 177.892 0 234.374 0 293.296C0 296.25 0.0744802 299.151 0.223441 302H218.632C219.994 295.484 220.676 288.83 220.676 282.037C220.676 259.894 212.607 242.631 196.469 230.246C180.331 217.861 155.937 211.668 123.286 211.668H91.7605C98.5159 189.901 107.898 170.573 119.908 153.685C132.293 136.796 145.991 121.597 161.003 108.086C174.139 96.0764 191.59 83.6916 213.357 70.9314ZM106.303 395H90.6836C93.4176 395.126 96.216 395.189 99.0788 395.189C101.511 395.189 103.92 395.126 106.303 395ZM368.217 395H383.837C381.453 395.126 379.045 395.189 376.612 395.189C373.749 395.189 370.951 395.126 368.217 395ZM496.165 302H277.757C277.608 299.151 277.533 296.25 277.533 293.296C277.533 234.374 302.303 177.892 351.842 123.849C401.757 69.8055 462.555 28.5227 534.237 0L550 39.9693C532.736 47.4753 513.033 57.796 490.89 70.9314C469.123 83.6916 451.672 96.0764 438.536 108.086C423.524 121.597 409.826 136.796 397.441 153.685C385.432 170.573 376.049 189.901 369.294 211.668H400.819C433.47 211.668 457.864 217.861 474.002 230.246C490.14 242.631 498.209 259.894 498.209 282.037C498.209 288.83 497.528 295.484 496.165 302Z" fill="#4B4B4B"/>
</svg>
