<svg id="star-half" viewBox="0 0 24 24" fill="none" xmlns="http://www.w3.org/2000/svg">
<g clip-path="url(#clip0_981_590)">
<path d="M23.2243 8.61039L16.0296 7.56476L12.8133 1.04445C12.7255 0.865924 12.581 0.721406 12.4024 0.633561C11.9547 0.412534 11.4106 0.596723 11.1868 1.04445L7.97055 7.56476L0.77582 8.61039C0.577461 8.63873 0.396105 8.73224 0.257255 8.87393C0.0893918 9.04646 -0.0031083 9.27858 7.97568e-05 9.51928C0.00326781 9.75997 0.101883 9.98956 0.274257 10.1576L5.47974 15.2327L4.24992 22.3991C4.22108 22.5658 4.23953 22.7373 4.30317 22.894C4.36681 23.0508 4.47311 23.1866 4.60999 23.286C4.74688 23.3854 4.90889 23.4445 5.07764 23.4565C5.24639 23.4686 5.41514 23.4331 5.56475 23.3541L12.0001 19.9706L18.4354 23.3541C18.611 23.4476 18.8151 23.4788 19.0106 23.4447C19.5037 23.3597 19.8352 22.8922 19.7502 22.3991L18.5204 15.2327L23.7259 10.1576C23.8675 10.0187 23.9611 9.83738 23.9894 9.63902C24.0659 9.14313 23.7202 8.68407 23.2243 8.61039ZM16.3299 14.5186L17.3529 20.4779L12.0001 17.6669V4.00848L14.6751 9.42933L20.6598 10.2993L16.3299 14.5186Z" fill="#D7BF7F"/>
</g>
<defs>
<clipPath id="clip0_981_590">
<rect width="24" height="24" fill="white"/>
</clipPath>
</defs>
</svg>
