<svg width="1920" height="1470" viewBox="0 0 1920 1470" fill="none" xmlns="http://www.w3.org/2000/svg">
<g clip-path="url(#clip0_939_365)">
<g opacity="0.3">
<path d="M51.9355 -17V1670" stroke="white" stroke-opacity="0.3" stroke-width="0.2" stroke-miterlimit="10"/>
<path d="M94.1758 -17V1670" stroke="white" stroke-opacity="0.3" stroke-width="0.2" stroke-miterlimit="10"/>
<path d="M136.459 -17V1670" stroke="white" stroke-opacity="0.3" stroke-width="0.2" stroke-miterlimit="10"/>
<path d="M178.742 -17V1670" stroke="white" stroke-opacity="0.3" stroke-width="0.2" stroke-miterlimit="10"/>
<path d="M220.982 -17V1670" stroke="white" stroke-opacity="0.3" stroke-width="0.2" stroke-miterlimit="10"/>
<path d="M263.266 -17V1670" stroke="white" stroke-opacity="0.3" stroke-width="0.2" stroke-miterlimit="10"/>
<path d="M305.549 -17V1670" stroke="white" stroke-opacity="0.3" stroke-width="0.2" stroke-miterlimit="10"/>
<path d="M347.789 -17V1670" stroke="white" stroke-opacity="0.3" stroke-width="0.2" stroke-miterlimit="10"/>
<path d="M390.07 -17V1670" stroke="white" stroke-opacity="0.3" stroke-width="0.2" stroke-miterlimit="10"/>
<path d="M432.355 -17V1670" stroke="white" stroke-opacity="0.3" stroke-width="0.2" stroke-miterlimit="10"/>
<path d="M474.598 -17V1670" stroke="white" stroke-opacity="0.3" stroke-width="0.2" stroke-miterlimit="10"/>
<path d="M516.883 -17V1670" stroke="white" stroke-opacity="0.3" stroke-width="0.2" stroke-miterlimit="10"/>
<path d="M559.164 -17V1670" stroke="white" stroke-opacity="0.3" stroke-width="0.2" stroke-miterlimit="10"/>
<path d="M601.406 -17V1670" stroke="white" stroke-opacity="0.3" stroke-width="0.2" stroke-miterlimit="10"/>
<path d="M643.688 -17V1670" stroke="white" stroke-opacity="0.3" stroke-width="0.2" stroke-miterlimit="10"/>
<path d="M685.969 -17V1670" stroke="white" stroke-opacity="0.3" stroke-width="0.2" stroke-miterlimit="10"/>
<path d="M728.211 -17V1670" stroke="white" stroke-opacity="0.3" stroke-width="0.2" stroke-miterlimit="10"/>
<path d="M770.492 -17V1670" stroke="white" stroke-opacity="0.3" stroke-width="0.2" stroke-miterlimit="10"/>
<path d="M812.777 -17V1670" stroke="white" stroke-opacity="0.3" stroke-width="0.2" stroke-miterlimit="10"/>
<path d="M855.016 -17V1670" stroke="white" stroke-opacity="0.3" stroke-width="0.2" stroke-miterlimit="10"/>
<path d="M897.301 -17V1670" stroke="white" stroke-opacity="0.3" stroke-width="0.2" stroke-miterlimit="10"/>
<path d="M939.586 -17V1670" stroke="white" stroke-opacity="0.3" stroke-width="0.2" stroke-miterlimit="10"/>
<path d="M981.824 -17V1670" stroke="white" stroke-opacity="0.3" stroke-width="0.2" stroke-miterlimit="10"/>
<path d="M1024.11 -17V1670" stroke="white" stroke-opacity="0.3" stroke-width="0.2" stroke-miterlimit="10"/>
<path d="M1066.39 -17V1670" stroke="white" stroke-opacity="0.3" stroke-width="0.2" stroke-miterlimit="10"/>
<path d="M1108.63 -17V1670" stroke="white" stroke-opacity="0.3" stroke-width="0.2" stroke-miterlimit="10"/>
<path d="M1150.91 -17V1670" stroke="white" stroke-opacity="0.3" stroke-width="0.2" stroke-miterlimit="10"/>
<path d="M1193.2 -17V1670" stroke="white" stroke-opacity="0.3" stroke-width="0.2" stroke-miterlimit="10"/>
<path d="M1235.44 -17V1670" stroke="white" stroke-opacity="0.3" stroke-width="0.2" stroke-miterlimit="10"/>
<path d="M1277.72 -17V1670" stroke="white" stroke-opacity="0.3" stroke-width="0.2" stroke-miterlimit="10"/>
<path d="M1320.01 -17V1670" stroke="white" stroke-opacity="0.3" stroke-width="0.2" stroke-miterlimit="10"/>
<path d="M1362.25 -17V1670" stroke="white" stroke-opacity="0.3" stroke-width="0.2" stroke-miterlimit="10"/>
<path d="M1404.53 -17V1670" stroke="white" stroke-opacity="0.3" stroke-width="0.2" stroke-miterlimit="10"/>
<path d="M1446.81 -17V1670" stroke="white" stroke-opacity="0.3" stroke-width="0.2" stroke-miterlimit="10"/>
<path d="M1489.05 -17V1670" stroke="white" stroke-opacity="0.3" stroke-width="0.2" stroke-miterlimit="10"/>
<path d="M1531.34 -17V1670" stroke="white" stroke-opacity="0.3" stroke-width="0.2" stroke-miterlimit="10"/>
<path d="M1573.62 -17V1670" stroke="white" stroke-opacity="0.3" stroke-width="0.2" stroke-miterlimit="10"/>
<path d="M1615.86 -17V1670" stroke="white" stroke-opacity="0.3" stroke-width="0.2" stroke-miterlimit="10"/>
<path d="M1658.14 -17V1670" stroke="white" stroke-opacity="0.3" stroke-width="0.2" stroke-miterlimit="10"/>
<path d="M1700.43 -17V1670" stroke="white" stroke-opacity="0.3" stroke-width="0.2" stroke-miterlimit="10"/>
<path d="M1742.71 -17V1670" stroke="white" stroke-opacity="0.3" stroke-width="0.2" stroke-miterlimit="10"/>
<path d="M1784.95 -17V1670" stroke="white" stroke-opacity="0.3" stroke-width="0.2" stroke-miterlimit="10"/>
<path d="M1827.23 -17V1670" stroke="white" stroke-opacity="0.3" stroke-width="0.2" stroke-miterlimit="10"/>
<path d="M1869.52 -17V1670" stroke="white" stroke-opacity="0.3" stroke-width="0.2" stroke-miterlimit="10"/>
</g>
<g opacity="0.3">
<path d="M0 1427.99H1920" stroke="white" stroke-opacity="0.3" stroke-width="0.2" stroke-miterlimit="10"/>
<path d="M0 1385.66H1920" stroke="white" stroke-opacity="0.3" stroke-width="0.2" stroke-miterlimit="10"/>
<path d="M0 1343.33L1920 1343.29" stroke="white" stroke-opacity="0.3" stroke-width="0.2" stroke-miterlimit="10"/>
<path d="M0 1300.96H1920" stroke="white" stroke-opacity="0.3" stroke-width="0.2" stroke-miterlimit="10"/>
<path d="M0 1258.63H1920" stroke="white" stroke-opacity="0.3" stroke-width="0.2" stroke-miterlimit="10"/>
<path d="M0 1216.26H1920" stroke="white" stroke-opacity="0.3" stroke-width="0.2" stroke-miterlimit="10"/>
<path d="M0 1173.93H1920" stroke="white" stroke-opacity="0.3" stroke-width="0.2" stroke-miterlimit="10"/>
<path d="M0 1131.56H1920" stroke="white" stroke-opacity="0.3" stroke-width="0.2" stroke-miterlimit="10"/>
<path d="M0 1089.23H1920" stroke="white" stroke-opacity="0.3" stroke-width="0.2" stroke-miterlimit="10"/>
<path d="M0 1046.86H1920" stroke="white" stroke-opacity="0.3" stroke-width="0.2" stroke-miterlimit="10"/>
<path d="M0 1004.53H1920" stroke="white" stroke-opacity="0.3" stroke-width="0.2" stroke-miterlimit="10"/>
<path d="M0 962.2H1920" stroke="white" stroke-opacity="0.3" stroke-width="0.2" stroke-miterlimit="10"/>
<path d="M0 919.828H1920" stroke="white" stroke-opacity="0.3" stroke-width="0.2" stroke-miterlimit="10"/>
<path d="M0 877.5H1920" stroke="white" stroke-opacity="0.3" stroke-width="0.2" stroke-miterlimit="10"/>
<path d="M0 835.128H1920" stroke="white" stroke-opacity="0.3" stroke-width="0.2" stroke-miterlimit="10"/>
<path d="M0 792.799H1920" stroke="white" stroke-opacity="0.3" stroke-width="0.2" stroke-miterlimit="10"/>
<path d="M0 750.428H1920" stroke="white" stroke-opacity="0.3" stroke-width="0.2" stroke-miterlimit="10"/>
<path d="M0 708.099H1920" stroke="white" stroke-opacity="0.3" stroke-width="0.2" stroke-miterlimit="10"/>
<path d="M0 665.728H1920" stroke="white" stroke-opacity="0.3" stroke-width="0.2" stroke-miterlimit="10"/>
<path d="M0 623.398H1920" stroke="white" stroke-opacity="0.3" stroke-width="0.2" stroke-miterlimit="10"/>
<path d="M0 581.07H1920" stroke="white" stroke-opacity="0.3" stroke-width="0.2" stroke-miterlimit="10"/>
<path d="M0 538.698H1920" stroke="white" stroke-opacity="0.3" stroke-width="0.2" stroke-miterlimit="10"/>
<path d="M0 496.37H1920" stroke="white" stroke-opacity="0.3" stroke-width="0.2" stroke-miterlimit="10"/>
<path d="M0 453.998H1920" stroke="white" stroke-opacity="0.3" stroke-width="0.2" stroke-miterlimit="10"/>
<path d="M0 411.669H1920" stroke="white" stroke-opacity="0.3" stroke-width="0.2" stroke-miterlimit="10"/>
<path d="M0 369.298H1920" stroke="white" stroke-opacity="0.3" stroke-width="0.2" stroke-miterlimit="10"/>
<path d="M0 326.969H1920" stroke="white" stroke-opacity="0.3" stroke-width="0.2" stroke-miterlimit="10"/>
<path d="M0 284.598H1920" stroke="white" stroke-opacity="0.3" stroke-width="0.2" stroke-miterlimit="10"/>
<path d="M0 242.269H1920" stroke="white" stroke-opacity="0.3" stroke-width="0.2" stroke-miterlimit="10"/>
<path d="M0 199.94H1920" stroke="white" stroke-opacity="0.3" stroke-width="0.2" stroke-miterlimit="10"/>
<path d="M0 157.568H1920" stroke="white" stroke-opacity="0.3" stroke-width="0.2" stroke-miterlimit="10"/>
<path d="M0 115.24H1920" stroke="white" stroke-opacity="0.3" stroke-width="0.2" stroke-miterlimit="10"/>
<path d="M0 72.8682H1920" stroke="white" stroke-opacity="0.3" stroke-width="0.2" stroke-miterlimit="10"/>
<path d="M0 30.5396H1920" stroke="white" stroke-opacity="0.3" stroke-width="0.2" stroke-miterlimit="10"/>
</g>
</g>
<defs>
<clipPath id="clip0_939_365">
<rect width="1920" height="1687" fill="white" transform="translate(0 -17)"/>
</clipPath>
</defs>
</svg>
