<svg width="96" height="24" viewBox="0 0 96 24" fill="none" xmlns="http://www.w3.org/2000/svg">
<g clip-path="url(#clip0_1118_1003)">
<path d="M0.5 0.5H23.5V23.5H0.5V0.5Z" stroke="#2E6BE5"/>
<path d="M9.55893 9.55698C8.23036 10.8855 8.23036 13.0713 9.55893 14.3998C10.8875 15.7284 13.0732 15.7284 14.4018 14.3998C15.7304 13.0713 15.7304 10.8855 14.4018 9.55698C13.0732 8.2284 10.9304 8.2284 9.55893 9.55698Z" fill="#2E6BE5"/>
<path d="M17.5734 6.68559V11.957C17.5734 15.0856 15.0876 17.5713 11.9591 17.5713H6.68764C9.7305 20.4856 14.4876 20.4427 17.4448 17.4427C20.4019 14.4856 20.4448 9.72845 17.5734 6.68559ZM6.43049 12.0427C6.43049 8.91417 8.91621 6.42845 12.0448 6.42845H17.3162C14.2734 3.51417 9.51621 3.55702 6.55907 6.55702C3.60192 9.55702 3.55907 14.3142 6.43049 17.3142V12.0427Z" fill="#2E6BE5"/>
<path d="M24.5 0.5H95.5V23.5H24.5V0.5Z" stroke="#2E6BE5"/>
<path d="M36.1297 12.9857C34.5868 12.5571 33.4297 11.3143 33.4297 9.51429C33.4297 7.28571 35.2725 6 37.244 6H46.6297V8.7H41.144V10.8H45.3868V13.4143H41.144V17.1429H38.2297V8.61429H37.2011C36.7297 8.61429 36.1725 8.91429 36.1725 9.51429C36.1725 9.98571 36.4725 10.2857 36.8583 10.4571L36.1297 12.9857ZM48.0011 17.1429V6H51.0011V17.1429H48.0011ZM56.1868 8.74286C58.4154 8.74286 60.0011 9.81429 60.0011 12.0429V17.1429H57.4725V16.2857C57.0011 17.1429 55.9297 17.4 54.9011 17.4C53.1011 17.4 52.0725 16.1143 52.0725 14.6571C52.0725 13.4143 53.0583 11.9143 55.5011 11.9143H57.2583V11.7857C57.2583 10.8429 56.9154 10.5 56.144 10.5C55.4583 10.5 55.0297 10.8429 54.9868 11.4857H52.4154C52.544 9.9 53.8297 8.74286 56.1868 8.74286ZM57.3011 14.0143V13.5429H56.0583C55.3297 13.5429 54.7725 13.9286 54.7725 14.4857C54.7725 15.0857 55.2011 15.3857 55.9297 15.3857C56.7868 15.3857 57.3011 14.7857 57.3011 14.0143ZM68.744 10.2C69.3011 9.17143 70.1154 8.78571 71.1868 8.78571C73.244 8.78571 74.144 10.0714 74.144 12.1286V17.1429H71.3583V12.6857C71.3583 11.7429 71.1868 11.1857 70.3725 11.1857C69.4725 11.1857 69.2154 11.8714 69.2154 12.7714V17.1429H66.4297V12.6857C66.4297 11.7429 66.2154 11.1857 65.3583 11.1857C64.4583 11.1857 64.1583 11.9571 64.1583 12.9V17.1857H61.2868V9H63.9868V10.2C64.544 9.04286 65.5297 8.74286 66.4297 8.74286C67.5011 8.74286 68.2725 9.17143 68.744 10.2ZM78.1725 10.1143C78.7297 9.08571 79.7583 8.74286 80.744 8.74286C82.8868 8.74286 84.1725 10.5429 84.1725 13.0714C84.1725 15.6429 82.844 17.4 80.744 17.4C79.7583 17.4 78.7725 17.1 78.2583 16.2857V20.1429H75.4297V9H78.1725V10.1143ZM79.7154 15.1714C80.9154 15.1714 81.3868 14.1857 81.3868 13.0714C81.3868 11.9571 80.9583 11.0143 79.7154 11.0143C78.5583 11.0143 78.044 11.9571 78.044 13.0714C78.0868 14.1857 78.5583 15.1714 79.7154 15.1714Z" fill="#2E6BE5"/>
</g>
<defs>
<clipPath id="clip0_1118_1003">
<rect width="96" height="24" fill="white"/>
</clipPath>
</defs>
</svg>
