<svg width="133" height="30" viewBox="0 0 133 30" fill="none" xmlns="http://www.w3.org/2000/svg">
<path d="M14.6861 28.8461C22.3331 28.8461 28.5323 22.647 28.5323 15C28.5323 7.35294 22.3331 1.15381 14.6861 1.15381C7.03902 1.15381 0.839844 7.35294 0.839844 15C0.839844 22.647 7.03902 28.8461 14.6861 28.8461Z" fill="#CE2457"/>
<path fill-rule="evenodd" clip-rule="evenodd" d="M14.003 6.67248C9.71024 7.02353 6.33594 10.6186 6.33594 15.0018C6.33594 19.6176 10.0778 23.3594 14.6935 23.3594C19.3092 23.3594 23.051 19.6176 23.051 15.0018C23.051 10.6181 19.6759 7.02273 15.3825 6.67236L15.1573 12.1618C16.5258 12.3836 17.5707 13.5707 17.5707 15.0018C17.5707 16.5909 16.2825 17.8791 14.6935 17.8791C13.1044 17.8791 11.8161 16.5909 11.8161 15.0018C11.8161 13.5712 12.8603 12.3845 14.2281 12.1621L14.003 6.67248Z" fill="white"/>
<path d="M14.6829 6.08688C15.6791 6.08688 16.4868 5.27923 16.4868 4.28294C16.4868 3.28665 15.6791 2.479 14.6829 2.479C13.6866 2.479 12.8789 3.28665 12.8789 4.28294C12.8789 5.27923 13.6866 6.08688 14.6829 6.08688Z" fill="white"/>
<path d="M47.3874 14.9973C47.3874 16.9044 46.6898 18.4447 45.3722 19.6917C44.0545 20.9386 42.4268 21.5254 40.489 21.5254C38.5512 21.5254 37.001 20.9386 35.6058 19.6917C34.3656 18.4447 33.668 16.9044 33.668 14.9973C33.668 13.0902 34.3656 11.5499 35.6833 10.303C37.001 9.05604 38.6287 8.46924 40.489 8.46924C42.3492 8.46924 44.0545 9.05604 45.3722 10.303C46.6898 11.5499 47.3874 13.0902 47.3874 14.9973ZM44.8296 14.9973C44.8296 13.8971 44.442 12.9435 43.5894 12.21C42.8143 11.4765 41.7292 11.1098 40.489 11.1098C39.2488 11.1098 38.2412 11.4765 37.3885 12.21C36.5359 12.9435 36.1483 13.8971 36.1483 14.9973C36.1483 16.0976 36.5359 17.0511 37.3885 17.7846C38.1636 18.5181 39.2488 18.8848 40.489 18.8848C41.7292 18.8848 42.8143 18.5181 43.5894 17.7846C44.442 17.0511 44.8296 16.0976 44.8296 14.9973Z" fill="white"/>
<path d="M55.5712 20.9397H52.7033V11.3309H48.2852V9.05713H59.9118V11.3309H55.5712V20.9397Z" fill="white"/>
<path d="M66.3356 21.2359C64.3204 21.2359 62.6926 20.9426 61.375 20.3558V18.0086C62.8477 18.6687 64.3979 18.9621 65.9481 18.9621C67.1108 18.9621 67.9634 18.8155 68.661 18.522C69.2811 18.2286 69.6687 17.7885 69.6687 17.2751C69.6687 16.2482 68.7386 15.8081 66.8008 15.8081H64.3979V13.681H66.8008C68.4285 13.681 69.2036 13.2409 69.2036 12.3607C69.2036 11.4072 68.1184 10.967 66.0257 10.967C64.6304 10.967 63.2352 11.2605 61.7625 11.8473V9.57343C63.0802 9.05999 64.7079 8.7666 66.6457 8.7666C68.196 8.7666 69.5137 9.05999 70.5988 9.64678C71.6064 10.2336 72.149 11.0404 72.149 11.9206C72.149 13.2409 71.4515 14.1211 70.1337 14.5611C71.7614 15.0746 72.6141 16.0281 72.6141 17.4951C72.6141 18.5954 72.0715 19.5489 70.9089 20.2091C69.7462 20.9426 68.196 21.2359 66.3356 21.2359Z" fill="white"/>
<path d="M88.2538 14.9973C88.2538 16.9044 87.5563 18.4447 86.2387 19.6917C84.921 20.9386 83.2933 21.5254 81.3554 21.5254C79.4177 21.5254 77.8675 20.9386 76.4722 19.6917C75.1546 18.4447 74.457 16.9044 74.457 14.9973C74.457 13.0902 75.1546 11.5499 76.4722 10.303C77.8675 9.05604 79.4952 8.46924 81.433 8.46924C83.3707 8.46924 84.9985 9.05604 86.3162 10.303C87.5563 11.5499 88.2538 13.0902 88.2538 14.9973ZM85.7736 14.9973C85.7736 13.8971 85.3861 12.9435 84.5334 12.21C83.7584 11.4765 82.6732 11.1098 81.433 11.1098C80.1928 11.1098 79.1851 11.4765 78.3326 12.21C77.4799 12.9435 77.0924 13.8971 77.0924 14.9973C77.0924 16.0976 77.4799 17.0511 78.3326 17.7846C79.1077 18.5181 80.1928 18.8848 81.433 18.8848C82.6732 18.8848 83.7584 18.5181 84.5334 17.7846C85.3085 17.0511 85.7736 16.0976 85.7736 14.9973Z" fill="white"/>
<path d="M98.331 20.9397H90.8125V9.05713H97.9433C99.1834 9.05713 100.191 9.35053 100.966 9.86401C101.741 10.3774 102.051 11.1842 102.051 12.0644C102.051 12.6512 101.896 13.1647 101.586 13.6048C101.276 14.0449 100.888 14.4116 100.346 14.6317C102.051 15.0717 102.904 16.0987 102.904 17.7124C102.904 18.7392 102.516 19.546 101.664 20.1328C100.888 20.6463 99.803 20.9397 98.331 20.9397ZM93.6804 11.1842V13.8248H97.2458C97.8654 13.8248 98.331 13.6781 98.7178 13.4581C99.0285 13.2381 99.2604 12.8713 99.2604 12.5046C99.2604 11.6244 98.6408 11.1842 97.3228 11.1842H93.6804ZM93.6804 15.8786V18.8126H97.7884C98.4859 18.8126 98.9506 18.6658 99.3383 18.4459C99.726 18.1524 99.8809 17.859 99.8809 17.3456C99.8809 16.9055 99.726 16.5387 99.3383 16.2454C98.9506 15.952 98.408 15.8786 97.7884 15.8786H93.6804Z" fill="white"/>
<path d="M108.248 20.9329H105.535V9.05029H108.403V17.1187L115.457 9.05029H118.17V20.9329H115.302V12.8645L108.248 20.9329Z" fill="white"/>
<path d="M124.02 20.9329H121.152V9.05029H124.02V20.9329Z" fill="white"/>
<path d="M127.048 14.7729L132.793 20.8609H129.084L123.629 14.9196L128.721 9.125H132.284L127.048 14.7729Z" fill="white"/>
</svg>
