<svg width="78" height="20" viewBox="0 0 78 20" fill="none" xmlns="http://www.w3.org/2000/svg">
<g clip-path="url(#clip0_1118_1001)">
<path d="M0.680556 1.24574H16.8194C17.1953 1.24574 17.5 1.55044 17.5 1.9263V5.1C17.5 5.52274 17.3166 5.92301 16.9972 6.2L7.97222 13.75H16.8194C17.1953 13.75 17.5 14.0491 17.5 14.425V18.0685C17.5 18.4444 17.1953 18.7491 16.8194 18.7491H0.680556C0.304695 18.7491 0 18.4444 0 18.0685V14.9C0 14.4773 0.183444 14.077 0.502798 13.8L9.52778 6.25H0.680556C0.304695 6.25 0 5.93836 0 5.5625V1.9263C0 1.55044 0.304695 1.24574 0.680556 1.24574ZM28.75 0.625C30.6161 0.625 32.2798 1.04464 33.6687 1.8115C35.0576 2.57836 36.1716 3.69244 36.9385 5.08133C37.7054 6.47022 38.125 8.13391 38.125 10C38.125 11.8661 37.7054 13.5298 36.9385 14.9187C36.1716 16.3076 35.0576 17.4216 33.6687 18.1885C32.2798 18.9554 30.6161 19.375 28.75 19.375C26.8839 19.375 25.2202 18.9554 23.8313 18.1885C22.4424 17.4216 21.3284 16.3076 20.5615 14.9187C19.7946 13.5298 19.375 11.8661 19.375 10C19.375 8.13391 19.7946 6.47022 20.5615 5.08133C21.3284 3.69244 22.4424 2.57836 23.8313 1.8115C25.2202 1.04464 26.8839 0.625 28.75 0.625ZM28.75 5.625C27.8574 5.625 27.0737 5.81356 26.4255 6.16416C25.7774 6.51476 25.2648 7.02739 24.9142 7.67554C24.5636 8.32369 24.375 9.10735 24.375 10C24.375 10.8926 24.5636 11.6763 24.9142 12.3245C25.2648 12.9726 25.7774 13.4852 26.4255 13.8358C27.0737 14.1864 27.8574 14.375 28.75 14.375C29.6426 14.375 30.4263 14.1864 31.0745 13.8358C31.7226 13.4852 32.2352 12.9726 32.5858 12.3245C32.9364 11.6763 33.125 10.8926 33.125 10C33.125 9.10735 32.9364 8.32369 32.5858 7.67554C32.2352 7.02739 31.7226 6.51476 31.0745 6.16416C30.4263 5.81356 29.6426 5.625 28.75 5.625ZM48.75 0.625C50.6161 0.625 52.2798 1.04464 53.6687 1.8115C55.0576 2.57836 56.1716 3.69244 56.9385 5.08133C57.7054 6.47022 58.125 8.13391 58.125 10C58.125 11.8661 57.7054 13.5298 56.9385 14.9187C56.1716 16.3076 55.0576 17.4216 53.6687 18.1885C52.2798 18.9554 50.6161 19.375 48.75 19.375C46.8839 19.375 45.2202 18.9554 43.8313 18.1885C42.4424 17.4216 41.3284 16.3076 40.5615 14.9187C39.7946 13.5298 39.375 11.8661 39.375 10C39.375 8.13391 39.7946 6.47022 40.5615 5.08133C41.3284 3.69244 42.4424 2.57836 43.8313 1.8115C45.2202 1.04464 46.8839 0.625 48.75 0.625ZM48.75 5.625C47.8574 5.625 47.0737 5.81356 46.4255 6.16416C45.7774 6.51476 45.2648 7.02739 44.9142 7.67554C44.5636 8.32369 44.375 9.10735 44.375 10C44.375 10.8926 44.5636 11.6763 44.9142 12.3245C45.2648 12.9726 45.7774 13.4852 46.4255 13.8358C47.0737 14.1864 47.8574 14.375 48.75 14.375C49.6426 14.375 50.4263 14.1864 51.0745 13.8358C51.7226 13.4852 52.2352 12.9726 52.5858 12.3245C52.9364 11.6763 53.125 10.8926 53.125 10C53.125 9.10735 52.9364 8.32369 52.5858 7.67554C52.2352 7.02739 51.7226 6.51476 51.0745 6.16416C50.4263 5.81356 49.6426 5.625 48.75 5.625ZM77.5021 1.92846V18.0682C77.5021 18.4441 77.1974 18.7488 76.8215 18.7488H73.65C73.2273 18.7488 72.827 18.5654 72.55 18.2461L65 9.22218V18.0682C65 18.4441 64.6884 18.7488 64.3125 18.7488H60.6785C60.3026 18.7488 59.9979 18.4441 59.9979 18.0682V1.92846C59.9979 1.55258 60.3026 1.24787 60.6785 1.24787H63.85C64.2728 1.24787 64.673 1.43136 64.95 1.75079L72.5 10.7778V1.92846C72.5 1.55258 72.7991 1.24787 73.175 1.24787H76.8215C77.1974 1.24787 77.5021 1.55258 77.5021 1.92846Z" fill="#6339F5"/>
</g>
<defs>
<clipPath id="clip0_1118_1001">
<rect width="78" height="20" fill="white"/>
</clipPath>
</defs>
</svg>
