<svg width="97" height="152" viewBox="0 0 97 152" fill="none" xmlns="http://www.w3.org/2000/svg">
<path d="M49.2125 136.624H40.3718C40.3718 135.148 40.729 133.693 41.4434 132.259C42.2025 130.782 43.0955 129.475 44.1224 128.336C45.1493 127.197 46.1763 126.121 47.2032 125.109C48.2302 124.054 49.1008 123.021 49.8152 122.008C50.5743 120.954 50.9538 119.983 50.9538 119.098C50.9538 115.934 48.4088 114.352 43.3187 114.352C39.5681 114.352 35.7952 115.386 32 117.453V109.1C36.0631 107.033 40.3941 106 44.9931 106C49.6366 106 53.4542 106.907 56.4457 108.721C59.4819 110.535 61 113.319 61 117.073C61 118.676 60.5982 120.279 59.7945 121.882C58.9908 123.442 58.0085 124.856 56.8476 126.121C55.6867 127.344 54.5258 128.547 53.3649 129.728C52.204 130.867 51.2217 132.048 50.418 133.271C49.6143 134.452 49.2125 135.57 49.2125 136.624ZM48.8776 142.952C49.9492 143.838 50.485 145.124 50.485 146.812C50.485 148.499 49.9492 149.785 48.8776 150.671C47.806 151.557 46.4665 152 44.8591 152C43.2517 152 41.8899 151.557 40.7737 150.671C39.7021 149.785 39.1663 148.499 39.1663 146.812C39.1663 145.124 39.7021 143.838 40.7737 142.952C41.8899 142.066 43.2517 141.623 44.8591 141.623C46.4665 141.623 47.806 142.066 48.8776 142.952Z" fill="#D7BF7F"/>
<path d="M82.3672 76.2792H71.3926C71.3926 74.3856 71.836 72.519 72.7229 70.6795C73.6651 68.7859 74.7737 67.1087 76.0485 65.6479C77.3233 64.1871 78.5982 62.8074 79.873 61.5089C81.1478 60.1563 82.2286 58.8308 83.1155 57.5323C84.0577 56.1797 84.5289 54.9354 84.5289 53.7992C84.5289 49.7414 81.3695 47.7125 75.0508 47.7125C70.3949 47.7125 65.7113 49.0381 61 51.6891V40.9766C66.0439 38.3255 71.4203 37 77.1293 37C82.8938 37 87.6328 38.1632 91.3464 40.4897C95.1155 42.8161 97 46.387 97 51.2022C97 53.2581 96.5012 55.3141 95.5035 57.37C94.5058 59.3718 93.2864 61.1843 91.8453 62.8074C90.4042 64.3764 88.963 65.9184 87.5219 67.4333C86.0808 68.8941 84.8614 70.409 83.8637 71.978C82.8661 73.4929 82.3672 74.9266 82.3672 76.2792ZM81.9515 84.3948C83.2818 85.5309 83.9469 87.1811 83.9469 89.3452C83.9469 91.5094 83.2818 93.1596 81.9515 94.2957C80.6212 95.4319 78.9584 96 76.963 96C74.9677 96 73.2771 95.4319 71.8915 94.2957C70.5612 93.1596 69.8961 91.5094 69.8961 89.3452C69.8961 87.1811 70.5612 85.5309 71.8915 84.3948C73.2771 83.2586 74.9677 82.6905 76.963 82.6905C78.9584 82.6905 80.6212 83.2586 81.9515 84.3948Z" fill="#D7BF7F"/>
<path d="M24.3349 44.6052H11.836C11.836 42.4548 12.341 40.3352 13.351 38.2462C14.4242 36.0958 15.6867 34.1912 17.1386 32.5323C18.5905 30.8735 20.0423 29.3067 21.4942 27.8322C22.9461 26.2962 24.1771 24.7909 25.1871 23.3164C26.2602 21.7804 26.7968 20.3673 26.7968 19.077C26.7968 14.4691 23.1986 12.1651 16.0023 12.1651C10.6998 12.1651 5.36567 13.6703 0 16.6809V4.51582C5.74442 1.50527 11.8676 0 18.3695 0C24.9346 0 30.3318 1.32095 34.5612 3.96286C38.8537 6.60477 41 10.6598 41 16.1279C41 18.4626 40.4319 20.7973 39.2956 23.132C38.1593 25.4053 36.7706 27.4635 35.1293 29.3067C33.4881 31.0885 31.8468 32.8395 30.2055 34.5598C28.5643 36.2187 27.1755 37.939 26.0393 39.7208C24.903 41.4411 24.3349 43.0692 24.3349 44.6052ZM23.8614 53.8212C25.3764 55.1114 26.1339 56.9853 26.1339 59.4429C26.1339 61.9005 25.3764 63.7744 23.8614 65.0647C22.3464 66.3549 20.4527 67 18.1801 67C15.9076 67 13.9823 66.3549 12.4042 65.0647C10.8891 63.7744 10.1316 61.9005 10.1316 59.4429C10.1316 56.9853 10.8891 55.1114 12.4042 53.8212C13.9823 52.5309 15.9076 51.8858 18.1801 51.8858C20.4527 51.8858 22.3464 52.5309 23.8614 53.8212Z" fill="#D7BF7F"/>
</svg>
