<svg width="84" height="97" viewBox="0 0 84 97" fill="none" xmlns="http://www.w3.org/2000/svg">
<path d="M18.0956 11.6369L25.3338 9.69743L26.3112 13.3452L29.9303 12.3754L33.8399 26.9663L41.0781 25.0268L42.0555 28.6745L52.9129 25.7653L53.8903 29.413L61.1285 27.4736L62.1059 31.1213L65.725 30.1515L66.7024 33.7993L70.3215 32.8295L77.1633 58.3636L73.5442 59.3333L76.4764 70.2765L72.8573 71.2462L75.7895 82.1894L39.5984 91.8867L36.6662 80.9436L33.0471 81.9133L31.0923 74.6179L27.4732 75.5876L25.5184 68.2922L21.8993 69.2619L19.9445 61.9665L16.3254 62.9362L15.348 59.2885L11.7288 60.2582L8.79663 49.3151L19.654 46.4059L20.6314 50.0536L24.2505 49.0838L15.4538 16.2544L19.073 15.2846L18.0956 11.6369Z" fill="black"/>
<path d="M26.3112 13.3451L19.0729 15.2846L31.7792 62.705L28.1601 63.6747L25.2279 52.7316L21.6088 53.7013L20.6313 50.0536L13.3931 51.993L15.3479 59.2885L18.967 58.3187L19.9444 61.9665L23.5636 60.9967L25.5184 68.2922L29.1375 67.3224L31.0923 74.6179L34.7114 73.6481L36.6662 80.9436L40.2853 79.9738L42.2401 87.2693L71.193 79.5114L69.2382 72.2159L72.8573 71.2462L69.9251 60.303L73.5442 59.3333L66.7024 33.7993L63.0833 34.769L62.1059 31.1213L58.4867 32.091L61.419 43.0342L57.7998 44.0039L53.8902 29.413L46.652 31.3525L49.5842 42.2957L45.9651 43.2654L42.0555 28.6745L34.8173 30.614L38.7269 45.2049L35.1078 46.1746L26.3112 13.3451Z" fill="#FFCA11"/>
</svg>
