<?xml version="1.0" standalone="no"?>
<!DOCTYPE svg PUBLIC "-//W3C//DTD SVG 20010904//EN"
 "http://www.w3.org/TR/2001/REC-SVG-20010904/DTD/svg10.dtd">
<svg version="1.0" xmlns="http://www.w3.org/2000/svg"
 width="863.000000pt" height="863.000000pt" viewBox="0 0 863.000000 863.000000"
 preserveAspectRatio="xMidYMid meet">
<metadata>
Created by potrace 1.14, written by Peter Selinger 2001-2017
</metadata>
<g transform="translate(0.000000,863.000000) scale(0.100000,-0.100000)"
fill="#000000" stroke="none">
<path d="M3485 7292 c-46 -29 -52 -40 -84 -163 -44 -170 -115 -333 -148 -343
-16 -4 -40 -9 -98 -20 -305 -59 -713 -298 -975 -572 -106 -110 -154 -174 -245
-328 -78 -132 -245 -467 -245 -491 0 -2 -14 -33 -30 -69 l-30 -65 48 -63 c76
-101 96 -156 97 -268 0 -111 -15 -161 -81 -261 -46 -70 -125 -139 -211 -184
-48 -25 -53 -30 -53 -62 0 -28 -9 -43 -49 -82 l-48 -47 -38 30 c-83 66 -218
34 -256 -61 -4 -12 -22 -95 -38 -185 -16 -90 -32 -174 -35 -188 -28 -157 -39
-216 -52 -277 -7 -39 -17 -89 -20 -110 -3 -21 -7 -39 -8 -40 -2 -2 -96 22
-406 107 -314 86 -327 88 -387 59 -33 -17 -55 -36 -70 -64 -36 -64 -35 -67 58
-405 11 -41 27 -97 35 -125 8 -27 61 -223 119 -435 58 -212 112 -407 120 -435
9 -27 33 -117 56 -200 22 -82 49 -181 61 -220 11 -38 21 -74 22 -80 1 -5 15
-59 31 -118 43 -155 82 -198 185 -198 36 0 84 18 240 91 107 51 220 103 250
117 99 44 175 84 194 101 24 23 53 82 51 108 -4 39 -16 97 -26 113 -19 33
-150 393 -145 398 3 3 47 -11 98 -32 106 -42 151 -46 207 -14 50 28 73 72 101
190 l23 97 45 -52 c24 -28 73 -82 107 -121 34 -38 88 -100 119 -137 110 -129
195 -130 326 -5 110 106 106 104 133 80 27 -24 165 -123 171 -123 3 0 24 -13
48 -29 106 -70 359 -199 483 -246 151 -57 347 -112 465 -130 25 -4 52 -9 60
-10 108 -20 500 -28 645 -13 530 55 1031 235 1380 499 226 171 489 476 627
729 76 139 86 158 121 240 71 167 153 442 172 575 3 23 8 52 10 65 6 30 32
217 39 282 5 43 12 53 111 152 58 57 105 99 106 93 5 -105 20 -138 76 -177 69
-47 103 -39 423 99 389 168 368 157 402 210 27 42 29 51 24 111 -7 80 -16 151
-21 168 -10 29 15 9 39 -32 54 -93 92 -124 161 -132 67 -7 69 -5 530 352 44
34 87 75 97 90 37 65 29 133 -25 210 -18 25 -43 63 -57 84 -28 44 -267 397
-345 510 -28 41 -136 201 -239 355 -104 154 -203 294 -222 311 -19 18 -49 34
-66 38 -17 3 -167 9 -333 12 -343 7 -354 5 -403 -69 -30 -44 -28 -12 -31 -580
l-1 -118 -50 60 c-63 76 -186 184 -286 252 -78 52 -271 156 -329 177 -16 5
-61 22 -100 36 -102 38 -266 83 -333 90 -13 2 -48 25 -78 52 -99 87 -226 172
-364 242 -115 58 -181 86 -340 142 -70 25 -260 67 -345 76 -102 11 -391 5
-540 -11 -22 -3 -62 -7 -90 -10 l-50 -5 -55 83 c-66 98 -262 301 -313 322 -48
20 -85 19 -122 -3z"/>
<path d="M1243 5273 c-103 -20 -180 -69 -212 -131 -65 -128 -72 -302 -15 -414
35 -70 113 -121 228 -151 70 -19 207 -15 258 6 53 22 126 102 161 177 26 55
31 75 30 140 -2 83 -27 170 -69 233 -68 103 -244 168 -381 140z m201 -83 c85
-33 136 -87 165 -178 40 -124 17 -232 -71 -320 -47 -48 -84 -62 -170 -66 -76
-3 -114 5 -196 46 -70 34 -103 73 -122 145 -31 121 10 289 84 343 80 59 204
71 310 30z"/>
</g>
</svg>
