<svg width="399" height="193" viewBox="0 0 399 193" fill="none" xmlns="http://www.w3.org/2000/svg">
<path fill-rule="evenodd" clip-rule="evenodd" d="M391.748 5.65233H6.25161V186.348H391.748V5.65233ZM5 5V187H393V5H5Z" fill="black"/>
<path d="M204.894 5.44681C204.894 8.455 202.455 10.8936 199.447 10.8936C196.439 10.8936 194 8.455 194 5.44681C194 2.43862 196.439 0 199.447 0C202.455 0 204.894 2.43862 204.894 5.44681Z" fill="#FF7BAC"/>
<path d="M204.894 187.447C204.894 190.455 202.455 192.894 199.447 192.894C196.439 192.894 194 190.455 194 187.447C194 184.439 196.439 182 199.447 182C202.455 182 204.894 184.439 204.894 187.447Z" fill="#FF7BAC"/>
<path d="M10.8936 187.447C10.8936 190.455 8.455 192.894 5.44681 192.894C2.43862 192.894 0 190.455 0 187.447C0 184.439 2.43862 182 5.44681 182C8.455 182 10.8936 184.439 10.8936 187.447Z" fill="#FF7BAC"/>
<path d="M10.8936 5.44681C10.8936 8.455 8.455 10.8936 5.44681 10.8936C2.43862 10.8936 0 8.455 0 5.44681C0 2.43862 2.43862 0 5.44681 0C8.455 0 10.8936 2.43862 10.8936 5.44681Z" fill="#FF7BAC"/>
<path d="M10.8936 96.4468C10.8936 99.455 8.455 101.894 5.44681 101.894C2.43862 101.894 0 99.455 0 96.4468C0 93.4386 2.43862 91 5.44681 91C8.455 91 10.8936 93.4386 10.8936 96.4468Z" fill="#FF7BAC"/>
<path d="M398.894 96.4468C398.894 99.455 396.455 101.894 393.447 101.894C390.439 101.894 388 99.455 388 96.4468C388 93.4386 390.439 91 393.447 91C396.455 91 398.894 93.4386 398.894 96.4468Z" fill="#FF7BAC"/>
<path d="M398.894 96.4468C398.894 99.455 396.455 101.894 393.447 101.894C390.439 101.894 388 99.455 388 96.4468C388 93.4386 390.439 91 393.447 91C396.455 91 398.894 93.4386 398.894 96.4468Z" fill="#FF7BAC"/>
<path d="M398.894 187.447C398.894 190.455 396.455 192.894 393.447 192.894C390.439 192.894 388 190.455 388 187.447C388 184.439 390.439 182 393.447 182C396.455 182 398.894 184.439 398.894 187.447Z" fill="#FF7BAC"/>
<path d="M398.894 5.44681C398.894 8.455 396.455 10.8936 393.447 10.8936C390.439 10.8936 388 8.455 388 5.44681C388 2.43862 390.439 0 393.447 0C396.455 0 398.894 2.43862 398.894 5.44681Z" fill="#FF7BAC"/>
</svg>
