<svg width="301" height="284" viewBox="0 0 301 284" fill="none" xmlns="http://www.w3.org/2000/svg">
<path fill-rule="evenodd" clip-rule="evenodd" d="M233.011 7.57278L7.81527 73.8986L67.4655 276.428L292.661 210.102L233.011 7.57278ZM6.86877 73.3828L66.9497 277.375L293.607 210.618L233.526 6.62629L6.86877 73.3828Z" fill="black"/>
<path d="M125.316 38.4968C126.148 41.3235 124.532 44.2898 121.705 45.1223C118.878 45.9548 115.912 44.3383 115.079 41.5116C114.247 38.685 115.863 35.7187 118.69 34.8861C121.517 34.0536 124.483 35.6702 125.316 38.4968Z" fill="#FF7BAC"/>
<path d="M185.397 242.489C186.229 245.316 184.613 248.282 181.786 249.114C178.959 249.947 175.993 248.33 175.16 245.504C174.328 242.677 175.945 239.711 178.771 238.878C181.598 238.046 184.564 239.662 185.397 242.489Z" fill="#FF7BAC"/>
<path d="M11.9867 71.8752C12.8192 74.7019 11.2027 77.6682 8.37605 78.5007C5.54942 79.3332 2.58309 77.7167 1.75057 74.89C0.918052 72.0634 2.53461 69.0971 5.36124 68.2646C8.18788 67.432 11.1542 69.0486 11.9867 71.8752Z" fill="#FF7BAC"/>
<path d="M42.1349 174.237C42.9674 177.063 41.3509 180.03 38.5242 180.862C35.6976 181.695 32.7313 180.078 31.8988 177.251C31.0662 174.425 32.6828 171.458 35.5094 170.626C38.3361 169.793 41.3024 171.41 42.1349 174.237Z" fill="#FF7BAC"/>
<path d="M238.644 5.1184C239.477 7.94504 237.86 10.9114 235.034 11.7439C232.207 12.5764 229.241 10.9599 228.408 8.13321C227.576 5.30658 229.192 2.34025 232.019 1.50773C234.846 0.675214 237.812 2.29177 238.644 5.1184Z" fill="#FF7BAC"/>
<path d="M70.5603 270.749C71.3928 273.576 69.7763 276.542 66.9497 277.375C64.123 278.207 61.1567 276.591 60.3242 273.764C59.4917 270.937 61.1082 267.971 63.9348 267.139C66.7615 266.306 69.7278 267.923 70.5603 270.749Z" fill="#FF7BAC"/>
<path d="M297.218 203.993C298.051 206.82 296.434 209.786 293.607 210.618C290.781 211.451 287.814 209.834 286.982 207.008C286.149 204.181 287.766 201.215 290.593 200.382C293.419 199.55 296.386 201.166 297.218 203.993Z" fill="#FF7BAC"/>
<path d="M268.793 107.48C269.625 110.307 268.009 113.273 265.182 114.106C262.355 114.938 259.389 113.322 258.556 110.495C257.724 107.668 259.341 104.702 262.167 103.87C264.994 103.037 267.96 104.654 268.793 107.48Z" fill="#FF7BAC"/>
</svg>
