<svg width="103" height="24" viewBox="0 0 103 24" fill="none" xmlns="http://www.w3.org/2000/svg">
<path fill-rule="evenodd" clip-rule="evenodd" d="M12.8772 23.1643H20.6226V10.0196L5.13189 5.53462V0H0V23.1643H7.74535V15.8643H12.8772V23.1643Z" fill="#4DBC15"/>
<path fill-rule="evenodd" clip-rule="evenodd" d="M65.2894 10.115V17.248C65.2894 17.6536 65.3607 18.0591 65.4557 18.4647C65.5745 18.8702 65.7408 19.2281 66.0022 19.5621C66.2635 19.8961 66.5961 20.1823 66.9763 20.3732C67.9266 20.7787 68.9958 20.7787 69.9461 20.3732C70.3262 20.1823 70.6589 19.8961 70.9202 19.5621C71.1578 19.2281 71.3479 18.8464 71.4667 18.4647C71.5855 18.083 71.633 17.6774 71.633 17.248V10.1389H74.484V17.5104C74.484 19.3951 73.8663 21.9 70.8489 23.0212C69.3284 23.5938 67.6415 23.5938 66.1209 23.0212C63.6738 22.0908 62.4621 20.2539 62.4621 17.5104V10.0912L65.2894 10.115ZM57.354 11.8327C57.9717 12.4529 58.4706 13.1925 58.8033 14.0036C59.1596 14.8386 59.3497 15.7451 59.3259 16.6755C59.3259 18.4885 58.6132 20.23 57.3302 21.5183C56.7125 22.1385 55.9522 22.6395 55.1444 22.9735C53.41 23.6892 51.4618 23.6892 49.7512 22.9735C48.9434 22.6395 48.2069 22.1385 47.5654 21.5183C46.2824 20.23 45.5696 18.4885 45.5696 16.6755C45.5696 15.7689 45.7359 14.8624 46.0923 14.0036C47.1852 11.4748 49.6799 9.80491 52.4359 9.80491C54.2891 9.78106 56.0472 10.5206 57.354 11.8327ZM88.2166 10.1389V12.5961L81.3978 20.5879H88.5967V23.1643H77.7627V20.6833L84.534 12.7154H78.0003V10.1389H88.2166ZM101.783 10.1389V12.5961L94.9641 20.5879H102.163V23.1643H91.329V20.6833L98.1002 12.7154H91.5666V10.1389H101.783ZM33.7615 5.53467V11.0216C35.2821 9.78106 37.6342 9.47093 39.5349 10.2582C41.5306 11.0931 42.6711 12.9062 42.6711 15.2918V23.1643H39.7963V16.2461C39.7963 14.6239 38.9647 12.7154 36.6601 12.7154C34.1417 12.7154 33.7615 14.934 33.7615 16.2461V23.1643H30.8867V5.53467H33.7615ZM56.0472 18.3216C56.4036 17.248 56.4036 16.0552 56.0472 14.9817C55.8809 14.5046 55.6196 14.0752 55.287 13.6935C54.9543 13.3356 54.5504 13.0493 54.0753 12.8585C53.0536 12.4529 51.8895 12.4529 50.8678 12.8585C50.4164 13.0493 50.0125 13.3356 49.6561 13.6935C49.3235 14.0752 49.0622 14.5046 48.8958 14.9817C48.5395 16.0552 48.5395 17.248 48.8958 18.3216C49.0622 18.7987 49.3235 19.2281 49.6561 19.6098C49.9888 19.9676 50.3927 20.2539 50.8678 20.4447C51.8895 20.8503 53.0536 20.8503 54.0753 20.4447C54.5267 20.2539 54.9306 19.9676 55.287 19.6098C55.6196 19.2281 55.8809 18.7987 56.0472 18.3216Z" fill="white"/>
</svg>
