<svg width="116" height="24" viewBox="0 0 116 24" fill="none" xmlns="http://www.w3.org/2000/svg">
<g clip-path="url(#clip0_1118_1072)">
<path d="M11.0277 0.5C16.8444 0.5 21.5554 5.19063 21.5554 10.9714C21.5554 16.7522 16.8444 21.4429 11.0277 21.4429C5.21099 21.4429 0.5 16.7522 0.5 10.9714C0.5 5.19063 5.21099 0.5 11.0277 0.5Z" stroke="#4B4B4B"/>
<path d="M12.4401 6.21629H11.4216C9.55397 6.21629 8.57093 7.15748 8.57093 8.54537C8.57093 10.1143 9.24992 10.8509 10.6449 11.7921L11.7973 12.564L8.48586 17.4879H6.01172L8.98368 13.0836C7.27281 11.8642 6.31498 10.6817 6.31498 8.67859C6.31498 6.16848 8.0739 4.45459 11.4098 4.45459H14.7212V17.4761H12.4401V6.21629Z" fill="#4B4B4B"/>
<path d="M53.0471 19.7949C53.3142 19.8905 53.7758 20.0347 54.4327 20.0347C56.717 20.0347 57.641 18.476 58.9296 15.3844L64.0591 3.13477H61.3116L57.8355 11.9566L54.2381 3.13477H51.1992L56.3531 15.4079C55.8419 16.6304 55.3315 17.4689 54.1649 17.4689C53.63 17.4689 53.2905 17.3976 53.0464 17.302V19.7941L53.0471 19.7949ZM68.4615 20.0347C69.7982 20.0347 70.7458 19.7949 71.4516 19.291V16.9666C70.7222 17.4705 69.847 17.7816 68.6316 17.7816C66.5647 17.7816 65.714 16.2002 65.714 13.7065C65.714 11.0938 66.7593 9.75132 68.6561 9.75132C69.7746 9.75132 70.8679 10.1353 71.4516 10.495V8.07191C70.8435 7.7365 69.7738 7.49669 68.3402 7.49669C64.6451 7.49669 62.7239 10.1095 62.7239 13.7771C62.7239 17.8044 64.5963 20.0339 68.4615 20.0339V20.0347ZM72.3039 17.3255V19.7941C72.3039 19.7941 72.7654 20.0347 73.446 20.0347C75.9257 20.0347 76.5574 18.3083 76.7039 14.306L76.8741 9.99034H79.8153V19.7941H82.7077V7.73806H74.4188L74.1754 14.1861C74.0785 16.7511 73.9076 17.5426 72.96 17.5426C72.5465 17.5426 72.3039 17.3255 72.3039 17.3255ZM86.7013 23.5103C89.3999 23.5103 90.3964 21.6169 91.2234 19.1476L95.0398 7.73728H92.2443L89.5457 16.7981L86.8478 7.73728H83.8089L88.0144 20.3223C87.6985 20.8975 87.2361 21.2572 86.4343 21.2572C85.8994 21.2572 85.4378 21.0895 85.1212 20.7776V23.1028C85.1212 23.1028 85.5591 23.5103 86.7013 23.5103ZM96.1371 7.73728V19.7949H99.0303V9.99113H103.503V7.7365H96.1371V7.73728ZM105.206 7.73728V19.7949H107.71L112.182 12.3398V19.7949H115.002V7.73728H112.498L108.026 15.1924V7.73728H105.206Z" fill="#4B4B4B"/>
<path d="M45.1843 10.9714C45.1843 16.7522 40.4733 21.4429 34.6566 21.4429C28.8399 21.4429 24.1289 16.7522 24.1289 10.9714C24.1289 5.19063 28.8399 0.5 34.6566 0.5C40.4733 0.5 45.1843 5.19063 45.1843 10.9714Z" stroke="#4B4B4B"/>
<path d="M31.3234 3.83845C30.1262 4.62839 29.2884 5.85429 28.9904 7.25244C28.6924 8.6506 28.9578 10.1093 29.7297 11.3147C30.5016 12.5201 31.7182 13.3759 33.1178 13.6981C34.5174 14.0202 35.9882 13.7829 37.2138 13.0372L45.2593 7.93785C44.7066 6.03293 43.6463 4.31223 42.1907 2.9581C40.735 1.60398 38.9383 0.666872 36.9909 0.246094L31.3234 3.83845Z" fill="#4B4B4B"/>
<path d="M24.0547 13.9997L32.1033 8.89795C32.7105 8.51316 33.3879 8.25111 34.0968 8.12677C34.8057 8.00243 35.5324 8.01822 36.2352 8.17326C36.938 8.3283 37.6032 8.61954 38.1929 9.03036C38.7825 9.44117 39.2851 9.96352 39.6719 10.5676C40.0586 11.1716 40.322 11.8455 40.447 12.5509C40.572 13.2562 40.5561 13.9791 40.4003 14.6783C40.2444 15.3775 39.9517 16.0394 39.5388 16.626C39.1259 17.2127 38.6008 17.7127 37.9937 18.0975L32.3168 21.6953C30.37 21.2732 28.5743 20.3351 27.1198 18.9803C25.6653 17.6255 24.6062 15.9045 24.0547 13.9997Z" fill="#4B4B4B"/>
</g>
<defs>
<clipPath id="clip0_1118_1072">
<rect width="115.2" height="23.5102" fill="white"/>
</clipPath>
</defs>
</svg>
