<svg width="30" height="28" viewBox="0 0 30 28" fill="none" xmlns="http://www.w3.org/2000/svg">
<g clip-path="url(#clip0_1118_1075)">
<path fill-rule="evenodd" clip-rule="evenodd" d="M28.7823 27.97C30.5803 28.486 28.2673 22.075 28.2673 22.075C29.2973 18.995 30.3173 8.48 29.6773 5.275C29.0373 2.069 26.6373 2.18 22.2273 1.303C17.7383 0.402997 6.44831 -0.112003 3.99831 0.0199967C1.56331 0.146997 -0.226691 1.81 0.0233094 5.15C0.280309 8.48 4.18631 20.89 6.12331 23.97C8.05331 27.05 10.9063 26.512 12.6083 26.306C14.9423 26.018 23.7283 23.97 23.7283 23.97C22.9423 22.96 26.9853 27.454 28.7823 27.97ZM16.9983 8.59L18.5623 5.266H23.2423L18.1263 15.008V20.748H12.7563V15.008L9.89631 9.562L7.63331 5.266H12.3133L15.4373 11.891L16.9983 8.59Z" fill="#4B4B4B"/>
</g>
<defs>
<clipPath id="clip0_1118_1075">
<rect width="30" height="28" fill="white"/>
</clipPath>
</defs>
</svg>
