<svg id="arrow-right" viewBox="0 0 50 26" fill="none" xmlns="http://www.w3.org/2000/svg">
	<style>path {transition: 0.3s}</style>
<path d="M5 12C4.44772 12 4 12.4477 4 13C4 13.5523 4.44772 14 5 14V12ZM45.7071 13.7071C46.0976 13.3166 46.0976 12.6834 45.7071 12.2929L39.3431 5.92893C38.9526 5.53841 38.3195 5.53841 37.9289 5.92893C37.5384 6.31946 37.5384 6.95262 37.9289 7.34315L43.5858 13L37.9289 18.6569C37.5384 19.0474 37.5384 19.6805 37.9289 20.0711C38.3195 20.4616 38.9526 20.4616 39.3431 20.0711L45.7071 13.7071ZM5 14H45V12H5V14Z" fill="var(--icon-color, #D7BF7F)"/>
</svg>
