<svg id="icon-telegram" viewBox="0 0 24 22" fill="none" xmlns="http://www.w3.org/2000/svg">
	<style>path {transition: 0.3s}</style>
<path d="M23.1989 0.518487C22.8883 0.259173 22.5134 0.0892373 22.1142 0.0267699C21.715 -0.0356976 21.3064 0.0116412 20.9319 0.163747L1.38054 8.08519C0.962532 8.25785 0.60672 8.55398 0.360304 8.93429C0.113889 9.3146 -0.0114815 9.76111 0.00082675 10.2146C0.013135 10.6681 0.16254 11.1071 0.42922 11.4733C0.695899 11.8396 1.06725 12.1159 1.494 12.2654L5.44878 13.6461L7.65254 20.9621C7.68275 21.0597 7.72645 21.1525 7.78237 21.238C7.7911 21.2511 7.8031 21.2599 7.81183 21.2741C7.87612 21.3639 7.95375 21.4433 8.04202 21.5095C8.06666 21.5289 8.09214 21.5471 8.11839 21.5642C8.22173 21.6331 8.33615 21.6834 8.45659 21.7131L8.47077 21.7142L8.47732 21.7175C8.55023 21.7322 8.62442 21.7395 8.69879 21.7394L8.71842 21.7361C8.83016 21.7343 8.94093 21.7151 9.04681 21.6792C9.0719 21.6704 9.09263 21.6573 9.11663 21.6464C9.19583 21.6138 9.27091 21.5719 9.34028 21.5215C9.39554 21.4744 9.45081 21.4274 9.50611 21.3803L12.4539 18.1143L16.8505 21.5325C17.2375 21.835 17.7139 21.9995 18.2044 22C18.7185 21.9994 19.2168 21.8214 19.6157 21.4959C20.0145 21.1703 20.2897 20.7171 20.3951 20.2121L23.955 2.6754C24.0355 2.28087 24.0077 1.87179 23.8745 1.49189C23.7413 1.11199 23.5078 0.775539 23.1989 0.518487ZM9.13081 13.9942C8.97972 14.1456 8.87649 14.3383 8.83407 14.5483L8.49587 16.195L7.64054 13.3559L12.0754 11.0381L9.13081 13.9942ZM18.1881 19.8015L12.9918 15.7614C12.7743 15.593 12.5017 15.513 12.2281 15.5374C11.9546 15.5617 11.7002 15.6886 11.5157 15.8928L10.5709 16.9384L10.9047 15.3103L18.6321 7.55527C18.8154 7.37014 18.9269 7.12537 18.9463 6.86508C18.9656 6.60479 18.8917 6.34611 18.7379 6.13568C18.584 5.92525 18.3603 5.77691 18.107 5.7174C17.8538 5.65789 17.5877 5.69113 17.3568 5.81113L6.26701 11.6052L2.20313 10.1129L21.8177 2.23964L18.1881 19.8015Z" fill="var(--icon-color, #D7BF7F)"/>
</svg>
