<svg width="30" height="24" viewBox="0 0 30 24" fill="none" xmlns="http://www.w3.org/2000/svg">
<path d="M16.2448 21.2208C6.67832 21.2208 1.22378 14.6753 1 3.76624H5.81119C5.96504 11.7662 9.48951 15.1509 12.2867 15.8502V3.76624H16.8042V10.6613C19.5594 10.3676 22.4685 7.22079 23.4476 3.75226H27.951C27.5838 5.54774 26.8503 7.2482 25.7963 8.74741C24.7423 10.2466 23.3904 11.5124 21.8252 12.4655C23.5719 13.3349 25.1145 14.5648 26.3513 16.0739C27.588 17.5831 28.4908 19.3373 29 21.2208H24.035C22.972 17.9061 20.3147 15.3327 16.8042 14.983V21.2208H16.2587H16.2448Z" fill="#D7BF7F"/>
</svg>
