<svg width="170" height="42" viewBox="0 0 170 42" fill="none" xmlns="http://www.w3.org/2000/svg">
<path d="M19.5312 21.8281C20 22.349 20.3438 22.9219 20.5625 23.5469C20.7917 24.1615 20.9062 24.8802 20.9062 25.7031C20.9062 27.6615 20.1823 29.276 18.7344 30.5469C17.2865 31.8177 15.4896 32.4531 13.3438 32.4531C12.3542 32.4531 11.3646 32.3021 10.375 32C9.38542 31.6875 8.53125 31.3125 7.8125 30.875L7.14062 32.0156H5.89062L5.67188 24.4219H6.9375C7.19792 25.3594 7.5 26.2083 7.84375 26.9688C8.19792 27.7188 8.66146 28.4219 9.23438 29.0781C9.77604 29.6927 10.4062 30.1823 11.125 30.5469C11.8542 30.9115 12.6979 31.0938 13.6562 31.0938C14.375 31.0938 15 31 15.5312 30.8125C16.0729 30.625 16.5104 30.3594 16.8438 30.0156C17.1771 29.6719 17.4219 29.2708 17.5781 28.8125C17.7448 28.3438 17.8281 27.8073 17.8281 27.2031C17.8281 26.3177 17.5781 25.4948 17.0781 24.7344C16.5781 23.9635 15.8333 23.3802 14.8438 22.9844C14.1667 22.7135 13.3906 22.4167 12.5156 22.0938C11.6406 21.7604 10.8854 21.4479 10.25 21.1562C9 20.5938 8.02604 19.8594 7.32812 18.9531C6.64062 18.0365 6.29688 16.8438 6.29688 15.375C6.29688 14.5312 6.46875 13.7448 6.8125 13.0156C7.15625 12.2865 7.64583 11.6354 8.28125 11.0625C8.88542 10.5208 9.59896 10.099 10.4219 9.79688C11.2448 9.48438 12.1042 9.32812 13 9.32812C14.0208 9.32812 14.9323 9.48438 15.7344 9.79688C16.5469 10.1094 17.2865 10.474 17.9531 10.8906L18.5938 9.82812H19.8438L19.9688 17.1875H18.7031C18.474 16.3438 18.2135 15.5365 17.9219 14.7656C17.6406 13.9948 17.2708 13.2969 16.8125 12.6719C16.3646 12.0677 15.8177 11.5885 15.1719 11.2344C14.526 10.8698 13.7344 10.6875 12.7969 10.6875C11.8073 10.6875 10.9635 11.0052 10.2656 11.6406C9.56771 12.276 9.21875 13.0521 9.21875 13.9688C9.21875 14.9271 9.44271 15.724 9.89062 16.3594C10.3385 16.9844 10.9896 17.5 11.8438 17.9062C12.6042 18.2708 13.349 18.5885 14.0781 18.8594C14.8177 19.1198 15.5312 19.401 16.2188 19.7031C16.8438 19.974 17.4427 20.2812 18.0156 20.625C18.599 20.9688 19.1042 21.3698 19.5312 21.8281Z" fill="white"/>
<path d="M39.625 32H34.9688C34.1562 30.8229 33.2865 29.5625 32.3594 28.2188C31.4323 26.875 30.4688 25.5677 29.4688 24.2969L28.1875 25.5V29.1562C28.1875 29.5312 28.2552 29.8438 28.3906 30.0938C28.526 30.3333 28.7448 30.5104 29.0469 30.625C29.2969 30.7292 29.5365 30.8073 29.7656 30.8594C29.9948 30.9115 30.2604 30.9479 30.5625 30.9688V32H23V30.9688C23.2396 30.9479 23.4896 30.9271 23.75 30.9062C24.0104 30.875 24.2292 30.8333 24.4062 30.7812C24.6979 30.6875 24.9167 30.526 25.0625 30.2969C25.2083 30.0573 25.2812 29.75 25.2812 29.375V11.4688C25.2812 11.0833 25.1979 10.724 25.0312 10.3906C24.875 10.0469 24.6667 9.78646 24.4062 9.60938C24.1875 9.44271 23.8438 9.33333 23.375 9.28125C22.9167 9.22917 22.5469 9.19271 22.2656 9.17188V8.17188L27.9688 7.8125L28.1875 8.04688V24.3438C29 23.5312 29.875 22.6615 30.8125 21.7344C31.7604 20.7969 32.5573 19.9635 33.2031 19.2344C33.2865 19.1406 33.375 19.0208 33.4688 18.875C33.5729 18.7188 33.625 18.5938 33.625 18.5C33.625 18.2188 33.3958 18.0104 32.9375 17.875C32.4896 17.7396 32.0573 17.6458 31.6406 17.5938V16.5938H38.4219V17.5625C37.5469 17.8229 36.7708 18.151 36.0938 18.5469C35.4271 18.9323 34.9167 19.2812 34.5625 19.5938C34.3125 19.8021 33.9583 20.1406 33.5 20.6094C33.0417 21.0781 32.401 21.6927 31.5781 22.4531C32.4323 23.5052 33.3906 24.7656 34.4531 26.2344C35.526 27.7031 36.3073 28.7656 36.7969 29.4219C37.2552 30.0365 37.6667 30.4375 38.0312 30.625C38.3958 30.8125 38.9271 30.9271 39.625 30.9688V32Z" fill="white"/>
<path d="M47.9375 32H40.4844V30.9688C40.724 30.9479 40.9688 30.9271 41.2188 30.9062C41.4792 30.8854 41.7031 30.8438 41.8906 30.7812C42.1823 30.6875 42.3958 30.526 42.5312 30.2969C42.6771 30.0573 42.75 29.75 42.75 29.375V19.8594C42.75 19.526 42.6719 19.224 42.5156 18.9531C42.3698 18.6719 42.1615 18.4375 41.8906 18.25C41.6927 18.125 41.4062 18.0208 41.0312 17.9375C40.6562 17.8438 40.3125 17.7865 40 17.7656V16.75L45.4375 16.4062L45.6562 16.625V29.1875C45.6562 29.5521 45.724 29.8542 45.8594 30.0938C46.0052 30.3333 46.2292 30.5104 46.5312 30.625C46.7604 30.7188 46.9844 30.7969 47.2031 30.8594C47.4219 30.9115 47.6667 30.9479 47.9375 30.9688V32ZM45.9688 10.3281C45.9688 10.9219 45.7708 11.4427 45.375 11.8906C44.9896 12.3281 44.5104 12.5469 43.9375 12.5469C43.4062 12.5469 42.9427 12.3385 42.5469 11.9219C42.1615 11.4948 41.9688 11.0104 41.9688 10.4688C41.9688 9.89583 42.1615 9.39583 42.5469 8.96875C42.9427 8.54167 43.4062 8.32812 43.9375 8.32812C44.5312 8.32812 45.0156 8.53125 45.3906 8.9375C45.776 9.33333 45.9688 9.79688 45.9688 10.3281Z" fill="white"/>
<path d="M57.0469 32H49.5312V30.9688C49.7708 30.9479 50.026 30.9271 50.2969 30.9062C50.5677 30.875 50.7917 30.8333 50.9688 30.7812C51.2604 30.6875 51.4792 30.526 51.625 30.2969C51.7708 30.0573 51.8438 29.75 51.8438 29.375V11.5312C51.8438 11.1562 51.7604 10.8073 51.5938 10.4844C51.4375 10.151 51.2292 9.89062 50.9688 9.70312C50.7812 9.57812 50.4375 9.46354 49.9375 9.35938C49.4375 9.25521 49.0365 9.19271 48.7344 9.17188V8.17188L54.5312 7.8125L54.75 8.04688V29.1875C54.75 29.5521 54.8177 29.8542 54.9531 30.0938C55.0885 30.3229 55.3073 30.5 55.6094 30.625C55.8385 30.7292 56.0625 30.8073 56.2812 30.8594C56.5104 30.9115 56.7656 30.9479 57.0469 30.9688V32Z" fill="white"/>
<path d="M66.2031 32H58.6875V30.9688C58.9271 30.9479 59.1823 30.9271 59.4531 30.9062C59.724 30.875 59.9479 30.8333 60.125 30.7812C60.4167 30.6875 60.6354 30.526 60.7812 30.2969C60.9271 30.0573 61 29.75 61 29.375V11.5312C61 11.1562 60.9167 10.8073 60.75 10.4844C60.5938 10.151 60.3854 9.89062 60.125 9.70312C59.9375 9.57812 59.5938 9.46354 59.0938 9.35938C58.5938 9.25521 58.1927 9.19271 57.8906 9.17188V8.17188L63.6875 7.8125L63.9062 8.04688V29.1875C63.9062 29.5521 63.974 29.8542 64.1094 30.0938C64.2448 30.3229 64.4635 30.5 64.7656 30.625C64.9948 30.7292 65.2188 30.8073 65.4375 30.8594C65.6667 30.9115 65.9219 30.9479 66.2031 30.9688V32Z" fill="white"/>
<path d="M99.2188 32H90.0156V30.8906C90.2656 30.8698 90.625 30.8385 91.0938 30.7969C91.5729 30.7552 91.901 30.6927 92.0781 30.6094C92.3906 30.4844 92.6198 30.2969 92.7656 30.0469C92.9115 29.7865 92.9844 29.4531 92.9844 29.0469V21.1562H82.5625V28.875C82.5625 29.2396 82.6198 29.5469 82.7344 29.7969C82.8594 30.0469 83.099 30.2656 83.4531 30.4531C83.6302 30.5469 83.9427 30.6406 84.3906 30.7344C84.849 30.8281 85.2083 30.8802 85.4688 30.8906V32H76.2656V30.8906C76.5156 30.8698 76.875 30.8385 77.3438 30.7969C77.8229 30.7552 78.151 30.6927 78.3281 30.6094C78.6406 30.4844 78.8698 30.2969 79.0156 30.0469C79.1615 29.7865 79.2344 29.4531 79.2344 29.0469V13.0469C79.2344 12.7135 79.1667 12.4115 79.0312 12.1406C78.8958 11.8594 78.6615 11.6406 78.3281 11.4844C78.0469 11.349 77.7031 11.2292 77.2969 11.125C76.901 11.0208 76.5573 10.9583 76.2656 10.9375V9.82812H85.4688V10.9375C85.1771 10.9479 84.8177 10.9948 84.3906 11.0781C83.974 11.1615 83.6615 11.2396 83.4531 11.3125C83.099 11.4375 82.8594 11.6458 82.7344 11.9375C82.6198 12.2292 82.5625 12.5469 82.5625 12.8906V19.7656H92.9844V13.0469C92.9844 12.7135 92.9167 12.4115 92.7812 12.1406C92.6458 11.8594 92.4115 11.6406 92.0781 11.4844C91.7969 11.349 91.4531 11.2292 91.0469 11.125C90.651 11.0208 90.3073 10.9583 90.0156 10.9375V9.82812H99.2188V10.9375C98.9271 10.9479 98.5677 10.9948 98.1406 11.0781C97.724 11.1615 97.4115 11.2396 97.2031 11.3125C96.849 11.4375 96.6094 11.6458 96.4844 11.9375C96.3698 12.2292 96.3125 12.5469 96.3125 12.8906V28.875C96.3125 29.2396 96.3698 29.5469 96.4844 29.7969C96.6094 30.0469 96.849 30.2656 97.2031 30.4531C97.3802 30.5469 97.6927 30.6406 98.1406 30.7344C98.599 30.8281 98.9583 30.8802 99.2188 30.8906V32Z" fill="white"/>
<path d="M116.969 24.1406C116.969 25.224 116.797 26.2917 116.453 27.3438C116.109 28.3854 115.62 29.2708 114.984 30C114.266 30.8333 113.432 31.4531 112.484 31.8594C111.536 32.2656 110.474 32.4688 109.297 32.4688C108.318 32.4688 107.385 32.2865 106.5 31.9219C105.615 31.5469 104.828 31.0052 104.141 30.2969C103.464 29.599 102.922 28.75 102.516 27.75C102.12 26.7396 101.922 25.6094 101.922 24.3594C101.922 21.9531 102.62 19.9844 104.016 18.4531C105.422 16.9219 107.26 16.1562 109.531 16.1562C111.688 16.1562 113.464 16.8854 114.859 18.3438C116.266 19.7917 116.969 21.724 116.969 24.1406ZM113.734 24.1719C113.734 23.3906 113.656 22.5677 113.5 21.7031C113.344 20.8281 113.109 20.0885 112.797 19.4844C112.464 18.8385 112.026 18.3229 111.484 17.9375C110.943 17.5417 110.281 17.3438 109.5 17.3438C108.698 17.3438 108.01 17.5417 107.438 17.9375C106.875 18.3333 106.417 18.875 106.062 19.5625C105.729 20.1979 105.495 20.9219 105.359 21.7344C105.224 22.5469 105.156 23.3333 105.156 24.0938C105.156 25.0938 105.234 26.0208 105.391 26.875C105.557 27.7188 105.818 28.474 106.172 29.1406C106.526 29.8073 106.969 30.3333 107.5 30.7188C108.042 31.0938 108.708 31.2812 109.5 31.2812C110.802 31.2812 111.833 30.651 112.594 29.3906C113.354 28.1302 113.734 26.3906 113.734 24.1719Z" fill="white"/>
<path d="M135.719 31.7188L130.703 32.0625L130.469 31.8438V29.8906H130.375C130.125 30.151 129.844 30.4323 129.531 30.7344C129.219 31.026 128.859 31.2917 128.453 31.5312C127.984 31.8125 127.531 32.026 127.094 32.1719C126.656 32.3177 126.036 32.3906 125.234 32.3906C123.87 32.3906 122.828 31.9479 122.109 31.0625C121.401 30.1667 121.047 28.8698 121.047 27.1719V19.7969C121.047 19.4219 120.974 19.1094 120.828 18.8594C120.693 18.599 120.49 18.375 120.219 18.1875C120.031 18.0625 119.797 17.974 119.516 17.9219C119.234 17.8594 118.938 17.8177 118.625 17.7969V16.7812L123.766 16.4062L124 16.625V27.3281C124 28.4427 124.25 29.2812 124.75 29.8438C125.25 30.4062 125.849 30.6875 126.547 30.6875C127.12 30.6875 127.63 30.599 128.078 30.4219C128.526 30.2448 128.901 30.0365 129.203 29.7969C129.484 29.5781 129.729 29.349 129.938 29.1094C130.156 28.8594 130.323 28.6302 130.438 28.4219V19.6875C130.438 19.3438 130.365 19.0417 130.219 18.7812C130.073 18.5104 129.87 18.2812 129.609 18.0938C129.422 17.9688 129.141 17.8958 128.766 17.875C128.401 17.8438 127.99 17.8177 127.531 17.7969V16.7812L133.125 16.4062L133.359 16.625V28.8594C133.359 29.2135 133.432 29.5156 133.578 29.7656C133.724 30.0156 133.927 30.2292 134.188 30.4062C134.375 30.5208 134.599 30.599 134.859 30.6406C135.12 30.6719 135.406 30.6927 135.719 30.7031V31.7188Z" fill="white"/>
<path d="M147.781 24.4531C148.208 24.8281 148.536 25.2604 148.766 25.75C148.995 26.2396 149.109 26.8385 149.109 27.5469C149.109 28.974 148.573 30.1406 147.5 31.0469C146.438 31.9531 145.057 32.4062 143.359 32.4062C142.464 32.4062 141.635 32.2448 140.875 31.9219C140.125 31.599 139.589 31.3021 139.266 31.0312L138.953 32.0469H137.781L137.625 26.6875H138.703C138.786 27.0938 138.964 27.5677 139.234 28.1094C139.505 28.651 139.833 29.1406 140.219 29.5781C140.625 30.0365 141.109 30.4219 141.672 30.7344C142.245 31.0469 142.885 31.2031 143.594 31.2031C144.594 31.2031 145.365 30.9792 145.906 30.5312C146.448 30.0729 146.719 29.4219 146.719 28.5781C146.719 28.1406 146.63 27.7656 146.453 27.4531C146.286 27.1302 146.036 26.849 145.703 26.6094C145.359 26.3698 144.938 26.1562 144.438 25.9688C143.938 25.7708 143.38 25.5781 142.766 25.3906C142.276 25.2448 141.729 25.0469 141.125 24.7969C140.531 24.5365 140.021 24.2344 139.594 23.8906C139.135 23.526 138.76 23.0781 138.469 22.5469C138.177 22.0156 138.031 21.3906 138.031 20.6719C138.031 19.4115 138.5 18.3438 139.438 17.4688C140.375 16.5938 141.63 16.1562 143.203 16.1562C143.807 16.1562 144.422 16.2344 145.047 16.3906C145.682 16.5469 146.198 16.7344 146.594 16.9531L146.953 16.1406H148.078L148.312 21.0938H147.234C147.016 19.9896 146.542 19.0938 145.812 18.4062C145.094 17.7083 144.214 17.3594 143.172 17.3594C142.318 17.3594 141.646 17.5729 141.156 18C140.667 18.4271 140.422 18.9427 140.422 19.5469C140.422 20.0156 140.5 20.4062 140.656 20.7188C140.823 21.0312 141.068 21.2969 141.391 21.5156C141.703 21.724 142.094 21.9219 142.562 22.1094C143.042 22.2865 143.63 22.4896 144.328 22.7188C145.016 22.9375 145.661 23.1927 146.266 23.4844C146.88 23.776 147.385 24.099 147.781 24.4531Z" fill="white"/>
<path d="M165.141 28.375C164.495 29.6042 163.63 30.5833 162.547 31.3125C161.464 32.0417 160.219 32.4062 158.812 32.4062C157.573 32.4062 156.484 32.1875 155.547 31.75C154.62 31.3125 153.854 30.7188 153.25 29.9688C152.646 29.2188 152.193 28.3438 151.891 27.3438C151.599 26.3438 151.453 25.2865 151.453 24.1719C151.453 23.1719 151.609 22.1927 151.922 21.2344C152.245 20.2656 152.714 19.3958 153.328 18.625C153.922 17.8854 154.656 17.2917 155.531 16.8438C156.417 16.3854 157.406 16.1562 158.5 16.1562C159.625 16.1562 160.589 16.3333 161.391 16.6875C162.193 17.0417 162.844 17.526 163.344 18.1406C163.823 18.724 164.177 19.4115 164.406 20.2031C164.646 20.9948 164.766 21.8542 164.766 22.7812V23.8125H154.562C154.562 24.8229 154.656 25.7396 154.844 26.5625C155.042 27.3854 155.349 28.1094 155.766 28.7344C156.172 29.3385 156.703 29.8177 157.359 30.1719C158.016 30.5156 158.797 30.6875 159.703 30.6875C160.63 30.6875 161.427 30.474 162.094 30.0469C162.771 29.6094 163.422 28.8281 164.047 27.7031L165.141 28.375ZM161.688 22.5C161.688 21.9167 161.635 21.2917 161.531 20.625C161.438 19.9583 161.281 19.401 161.062 18.9531C160.823 18.474 160.495 18.0833 160.078 17.7812C159.661 17.4792 159.125 17.3281 158.469 17.3281C157.375 17.3281 156.464 17.7865 155.734 18.7031C155.016 19.6094 154.625 20.875 154.562 22.5H161.688Z" fill="white"/>
</svg>
