<svg width="58" height="43" viewBox="0 0 58 43" fill="none" xmlns="http://www.w3.org/2000/svg">
<path d="M58 4.99863C55.5139 6.26813 53.1865 7.56407 51.0178 8.88646C48.902 10.156 47.0771 11.4254 45.5431 12.6949C43.7446 14.2289 42.2636 15.8687 41.0999 17.6142C39.9362 19.3598 38.9311 21.6078 38.0848 24.3584H41.4966C44.829 24.3584 47.2093 25.1783 48.6375 26.8181C50.1186 28.4578 50.8591 30.2827 50.8591 32.2928C50.8591 34.8317 49.8805 37.2649 47.9234 39.5923C45.9663 41.8668 43.295 43.0041 39.9097 43.0041C36.3128 43.0041 33.6416 41.9991 31.896 39.9891C30.2034 37.979 29.357 35.3342 29.357 32.0547C29.357 27.7702 30.2827 23.8824 32.1341 20.3912C33.9854 16.9001 36.3128 13.7793 39.1163 11.0287C41.8668 8.38395 44.7232 6.18878 47.6854 4.44323C50.7004 2.69767 53.3452 1.2166 55.6197 0L58 4.99863ZM28.643 4.99863C26.1569 6.26813 23.8295 7.56407 21.6607 8.88646C19.5449 10.156 17.72 11.4254 16.186 12.6949C14.3876 14.2289 12.9065 15.8687 11.7428 17.6142C10.5791 19.3598 9.5741 21.6078 8.72777 24.3584H12.1395C15.472 24.3584 17.8523 25.1783 19.2804 26.8181C20.7615 28.4578 21.5021 30.2827 21.5021 32.2928C21.5021 34.8317 20.5235 37.2649 18.5663 39.5923C16.6092 41.8668 13.938 43.0041 10.5527 43.0041C6.95577 43.0041 4.28454 41.9991 2.53899 39.9891C0.846329 37.979 0 35.3342 0 32.0547C0 27.7702 0.925673 23.8824 2.77702 20.3912C4.62836 16.9001 6.95577 13.7793 9.75923 11.0287C12.5098 8.38395 15.3662 6.18878 18.3283 4.44323C21.3434 2.69767 23.9881 1.2166 26.2627 0L28.643 4.99863Z" fill="#D7BF7F"/>
</svg>
