<svg id="logo-youtube" viewBox="0 0 72 22" fill="none" xmlns="http://www.w3.org/2000/svg">
	<style>path{transition: 0.3s}</style>
<path d="M12.2924 21.2823C11.6031 20.8227 11.1149 20.1047 10.8277 19.0995C10.5405 18.123 10.3969 16.8018 10.3969 15.1935V12.982C10.3969 11.3449 10.5692 10.0238 10.8851 9.01855C11.2298 8.01333 11.7468 7.29531 12.436 6.83578C13.1541 6.37625 14.0731 6.14648 15.2219 6.14648C16.3421 6.14648 17.2611 6.37625 17.9504 6.83578C18.6397 7.29531 19.128 8.04205 19.4439 9.01855C19.7598 9.99505 19.9321 11.3162 19.9321 12.982V15.1935C19.9321 16.8306 19.7885 18.123 19.4726 19.1282C19.1567 20.1047 18.6684 20.8514 17.9791 21.311C17.2898 21.7705 16.3421 22.0003 15.1645 22.0003C13.9582 21.9715 12.9817 21.7418 12.2924 21.2823ZM16.1697 18.8697C16.3708 18.3815 16.4569 17.5486 16.4569 16.4285V11.6608C16.4569 10.5695 16.3708 9.76528 16.1697 9.24831C15.9687 8.73134 15.6528 8.50158 15.1645 8.50158C14.705 8.50158 14.3603 8.76006 14.188 9.24831C13.987 9.76528 13.9008 10.5695 13.9008 11.6608V16.4285C13.9008 17.5486 13.987 18.3815 14.188 18.8697C14.3603 19.358 14.705 19.6165 15.1932 19.6165C15.6528 19.6165 15.9687 19.3867 16.1697 18.8697Z" fill="var(--icon-color, #282828)"/>
<path d="M65.3107 15.222V15.9975C65.3107 16.974 65.3394 17.7207 65.3969 18.209C65.4543 18.6972 65.5692 19.0706 65.7702 19.2716C65.9425 19.5014 66.2298 19.6163 66.6318 19.6163C67.1488 19.6163 67.4935 19.4152 67.6945 19.0131C67.8956 18.6111 67.9817 17.9505 68.0104 17.0027L70.9687 17.175C70.9974 17.3186 70.9974 17.491 70.9974 17.7207C70.9974 19.128 70.624 20.1907 69.8486 20.88C69.0731 21.5693 67.9817 21.9139 66.5744 21.9139C64.8799 21.9139 63.7023 21.3682 63.013 20.3056C62.3237 19.2429 61.9791 17.6058 61.9791 15.3656V12.6946C61.9791 10.397 62.3237 8.73116 63.0418 7.6685C63.7598 6.60584 64.966 6.08887 66.6606 6.08887C67.8381 6.08887 68.7572 6.31863 69.389 6.74944C70.0209 7.18025 70.4517 7.86955 70.7102 8.75988C70.9687 9.67894 71.0835 10.9427 71.0835 12.551V15.1646H65.3107V15.222ZM65.7415 8.78861C65.5692 9.01837 65.4543 9.36302 65.3969 9.85127C65.3394 10.3395 65.3107 11.0863 65.3107 12.0915V13.1829H67.8381V12.0915C67.8381 11.115 67.8094 10.3682 67.7519 9.85127C67.6945 9.3343 67.5509 8.98965 67.3786 8.78861C67.2063 8.58756 66.919 8.47268 66.5744 8.47268C66.1723 8.44396 65.9138 8.55884 65.7415 8.78861Z" fill="var(--icon-color, #282828)"/>
<path d="M3.90601 14.9347L0 0.775391H3.41775L4.79634 7.18009C5.14099 8.75972 5.39948 10.1096 5.5718 11.2297H5.65796C5.77284 10.4255 6.03133 9.10437 6.43342 7.20881L7.86945 0.775391H11.2872L7.32376 14.9347V21.7127H3.93472V14.9347H3.90601Z" fill="var(--icon-color, #282828)"/>
<path d="M31.047 6.43359V21.7417H28.3473L28.0601 19.8748H27.9739C27.2559 21.2822 26.1358 22.0002 24.671 22.0002C23.6658 22.0002 22.9191 21.6555 22.4308 20.995C21.9426 20.3344 21.7128 19.3004 21.7128 17.8644V6.43359H25.1593V17.6634C25.1593 18.3527 25.2454 18.8409 25.389 19.1281C25.5326 19.4153 25.7911 19.5589 26.1358 19.5589C26.423 19.5589 26.7102 19.4728 26.9974 19.2717C27.2846 19.0994 27.4856 18.8696 27.6005 18.5824V6.43359H31.047Z" fill="var(--icon-color, #282828)"/>
<path d="M48.7102 6.43359V21.7417H46.0104L45.7232 19.8748H45.6371C44.9191 21.2822 43.7989 22.0002 42.3342 22.0002C41.329 22.0002 40.5822 21.6555 40.094 20.995C39.6057 20.3344 39.376 19.3004 39.376 17.8644V6.43359H42.8225V17.6634C42.8225 18.3527 42.9086 18.8409 43.0522 19.1281C43.1958 19.4153 43.4543 19.5589 43.799 19.5589C44.0862 19.5589 44.3734 19.4728 44.6606 19.2717C44.9478 19.0994 45.1488 18.8696 45.2637 18.5824V6.43359H48.7102Z" fill="var(--icon-color, #282828)"/>
<path d="M40.4099 3.56129H36.9922V21.7127H33.6319V3.56129H30.2141V0.775391H40.4099V3.56129Z" fill="var(--icon-color, #282828)"/>
<path d="M60.1122 8.87467C59.9112 7.89817 59.5666 7.20888 59.107 6.77807C58.6475 6.34726 57.9869 6.11749 57.1827 6.11749C56.5509 6.11749 55.9478 6.28982 55.4021 6.66319C54.8564 7.00783 54.4256 7.49608 54.1384 8.0705H54.1096V0H50.778V21.7128H53.6214L53.966 20.2768H54.0522C54.3107 20.7937 54.7128 21.1958 55.2585 21.5117C55.8042 21.799 56.3786 21.9713 57.0391 21.9713C58.2167 21.9713 59.0496 21.4256 59.5953 20.3629C60.141 19.3003 60.4282 17.6057 60.4282 15.3368V12.9243C60.3995 11.1723 60.3133 9.82245 60.1122 8.87467ZM56.953 15.107C56.953 16.2272 56.8955 17.0888 56.8094 17.7206C56.7232 18.3525 56.5509 18.812 56.3499 19.0705C56.1201 19.329 55.8329 19.4726 55.4882 19.4726C55.201 19.4726 54.9425 19.4151 54.7128 19.2715C54.483 19.1279 54.282 18.9269 54.1384 18.6684V9.99478C54.2532 9.59269 54.4543 9.24804 54.7415 8.96084C55.0287 8.70235 55.3446 8.55875 55.6606 8.55875C56.0052 8.55875 56.2924 8.70235 56.4647 8.96084C56.6658 9.24804 56.7807 9.70757 56.8668 10.3394C56.953 11 56.9817 11.9191 56.9817 13.0966V15.107H56.953Z" fill="var(--icon-color, #282828)"/>
</svg>
